<?xml version="1.0" standalone="no"?>
<!DOCTYPE svg PUBLIC "-//W3C//DTD SVG 20010904//EN" "http://www.w3.org/TR/2001/REC-SVG-20010904/DTD/svg10.dtd">
<!-- Created using Krita: https://krita.org -->
<svg xmlns="http://www.w3.org/2000/svg" 
    xmlns:xlink="http://www.w3.org/1999/xlink"
    xmlns:krita="http://krita.org/namespaces/svg/krita"
    xmlns:sodipodi="http://sodipodi.sourceforge.net/DTD/sodipodi-0.dtd"
    width="660.96pt"
    height="576pt"
    viewBox="0 0 660.96 576">
<defs/>
<path id="shape0" transform="matrix(1.31544147628162 0 0 1.31544147628162 525.573729677934 40.5476893685779)" fill="none" stroke="#2021a4" stroke-width="2.16" stroke-linecap="square" stroke-linejoin="miter" stroke-miterlimit="2" d="M0 0L0 327.651"/><path id="shape1" transform="matrix(1.31544147628162 0 0 1.31544147628162 525.573716050362 472.433453417633)" fill="none" stroke="#2021a4" stroke-width="2.16" stroke-linecap="square" stroke-linejoin="miter" stroke-miterlimit="2" d="M0 1.13687e-13L321.123 0"/><path id="shape2" transform="matrix(1.31544147628162 0 0 1.31544147628162 514.952461598498 38.2133407521788)" fill="none" stroke="#2021a4" stroke-width="2.16" stroke-linecap="square" stroke-linejoin="miter" stroke-miterlimit="2" d="M0 0L8.14985 0"/><path id="shape01" transform="matrix(1.3154414376956 0 0 1.3154414376956 514.979763783734 133.149804142517)" fill="none" stroke="#2021a4" stroke-width="2.16" stroke-linecap="square" stroke-linejoin="miter" stroke-miterlimit="2" d="M0 0L8.14985 0"/><path id="shape011" transform="matrix(1.31544147364265 0 0 1.31544147364265 514.219102428029 219.814470718019)" fill="none" stroke="#2021a4" stroke-width="2.16" stroke-linecap="square" stroke-linejoin="miter" stroke-miterlimit="2" d="M0 0L8.14985 0"/><path id="shape02" transform="matrix(1.31544144269203 0 0 1.31544144269203 514.364825374174 307.936939944957)" fill="none" stroke="#2021a4" stroke-width="2.16" stroke-linecap="square" stroke-linejoin="miter" stroke-miterlimit="2" d="M0 0L8.14985 0"/><path id="shape03" transform="matrix(1.31544142948097 0 0 1.31544142948097 514.496174371909 392.692070210845)" fill="none" stroke="#2021a4" stroke-width="2.16" stroke-linecap="square" stroke-linejoin="miter" stroke-miterlimit="2" d="M0 0L8.14985 0"/><path id="shape04" transform="matrix(1.31544135225701 0 0 1.31544135225701 514.536376517008 467.541726078747)" fill="none" stroke="#2021a4" stroke-width="2.16" stroke-linecap="square" stroke-linejoin="miter" stroke-miterlimit="2" d="M0 0L8.14985 0"/><path id="shape3" transform="matrix(1.31544147628162 0 0 1.31544147628162 614.190172249438 472.434606404948)" fill="none" stroke="#2021a4" stroke-width="2.16" stroke-linecap="square" stroke-linejoin="miter" stroke-miterlimit="2" d="M0 0L0 6.36396"/><path id="shape05" transform="matrix(1.3154414705378 0 0 1.31544147053781 705.213211804245 472.340670887584)" fill="none" stroke="#2021a4" stroke-width="2.16" stroke-linecap="square" stroke-linejoin="miter" stroke-miterlimit="2" d="M0 0L0 6.36396"/><path id="shape06" transform="matrix(1.31544149925285 0 0 1.31544149925285 799.166674283638 472.287791685025)" fill="none" stroke="#2021a4" stroke-width="2.16" stroke-linecap="square" stroke-linejoin="miter" stroke-miterlimit="2" d="M0 0L0 6.36396"/><path id="shape07" transform="matrix(1.31544146335583 0 0 1.31544146335583 880.509834698927 472.193027360901)" fill="none" stroke="#2021a4" stroke-width="2.16" stroke-linecap="square" stroke-linejoin="miter" stroke-miterlimit="2" d="M0 0L0 6.36396"/><text id="shape4" krita:useRichText="true" transform="matrix(1.31544147628162 0 0 1.31544147628162 864.387297219497 516.983409988422)" fill="#2021a4" stroke="#000000" stroke-opacity="0" stroke-width="0" stroke-linecap="square" stroke-linejoin="bevel" font-family="Times New Roman" font-size="20" font-size-adjust="0.404237" font-stretch="normal" font-weight="700" letter-spacing="0" text-anchor="middle" word-spacing="0"><tspan x="13.5">80</tspan></text><text id="shape08" krita:useRichText="true" transform="matrix(1.31544146843193 0 0 1.31544146843193 779.726156761223 519.150604710909)" fill="#2021a4" stroke="#000000" stroke-opacity="0" stroke-width="0" stroke-linecap="square" stroke-linejoin="bevel" font-family="Times New Roman" font-size="20" font-size-adjust="0.404237" font-stretch="normal" font-weight="700" letter-spacing="0" text-anchor="middle" word-spacing="0"><tspan x="13.5">60</tspan></text><text id="shape09" krita:useRichText="true" transform="matrix(1.31544145213307 0 0 1.31544145213307 687.693459414012 519.308654973919)" fill="#2021a4" stroke="#000000" stroke-opacity="0" stroke-width="0" stroke-linecap="square" stroke-linejoin="bevel" font-family="Times New Roman" font-size="20" font-size-adjust="0.404237" font-stretch="normal" font-weight="700" letter-spacing="0" text-anchor="middle" word-spacing="0"><tspan x="13.5">40</tspan></text><text id="shape010" krita:useRichText="true" transform="matrix(1.31544144887409 0 0 1.31544144887409 595.660774897215 519.801568096821)" fill="#2021a4" stroke="#000000" stroke-opacity="0" stroke-width="0" stroke-linecap="square" stroke-linejoin="bevel" font-family="Times New Roman" font-size="20" font-size-adjust="0.404237" font-stretch="normal" font-weight="700" letter-spacing="0" text-anchor="middle" word-spacing="0"><tspan x="13.5">20</tspan></text><text id="shape011" krita:useRichText="true" transform="matrix(1.3154413864991 0 0 1.3154413864991 514.89324430414 517.615613682366)" fill="#2021a4" stroke="#000000" stroke-opacity="0" stroke-width="0" stroke-linecap="square" stroke-linejoin="bevel" font-family="Times New Roman" font-size="20" font-size-adjust="0.404237" font-stretch="normal" font-weight="700" letter-spacing="0" text-anchor="middle" word-spacing="0"><tspan x="6.75">0</tspan></text><text id="shape012" krita:useRichText="true" transform="matrix(1.31544134924946 0 0 1.31544134924946 483.697758703693 477.255988623798)" fill="#2021a4" stroke="#000000" stroke-opacity="0" stroke-width="0" stroke-linecap="square" stroke-linejoin="bevel" font-family="Times New Roman" font-size="20" font-size-adjust="0.404237" font-stretch="normal" font-weight="700" letter-spacing="0" text-anchor="middle" word-spacing="0"><tspan x="6.75">0</tspan></text><text id="shape013" krita:useRichText="true" transform="matrix(1.3154413864991 0 0 1.3154413864991 469.466488034333 402.759753992534)" fill="#2021a4" stroke="#000000" stroke-opacity="0" stroke-width="0" stroke-linecap="square" stroke-linejoin="bevel" font-family="Times New Roman" font-size="20" font-size-adjust="0.404237" font-stretch="normal" font-weight="700" letter-spacing="0" text-anchor="middle" word-spacing="0"><tspan x="13.5">20</tspan></text><text id="shape014" krita:useRichText="true" transform="matrix(1.31544144887409 0 0 1.31544144887409 468.752479879215 317.438268459459)" fill="#2021a4" stroke="#000000" stroke-opacity="0" stroke-width="0" stroke-linecap="square" stroke-linejoin="bevel" font-family="Times New Roman" font-size="20" font-size-adjust="0.404237" font-stretch="normal" font-weight="700" letter-spacing="0" text-anchor="middle" word-spacing="0"><tspan x="13.5">40</tspan></text><text id="shape015" krita:useRichText="true" transform="matrix(1.31544145213307 0 0 1.31544145213307 468.942206898042 231.509580063735)" fill="#2021a4" stroke="#000000" stroke-opacity="0" stroke-width="0" stroke-linecap="square" stroke-linejoin="bevel" font-family="Times New Roman" font-size="20" font-size-adjust="0.404237" font-stretch="normal" font-weight="700" letter-spacing="0" text-anchor="middle" word-spacing="0"><tspan x="13.5">60</tspan></text><text id="shape016" krita:useRichText="true" transform="matrix(1.31544146843193 0 0 1.31544146843193 469.30576359499 144.575344892436)" fill="#2021a4" stroke="#000000" stroke-opacity="0" stroke-width="0" stroke-linecap="square" stroke-linejoin="bevel" font-family="Times New Roman" font-size="20" font-size-adjust="0.404237" font-stretch="normal" font-weight="700" letter-spacing="0" text-anchor="middle" word-spacing="0"><tspan x="13.5">80</tspan></text><text id="shape017" krita:useRichText="true" transform="matrix(1.31544142285052 0 0 1.31544142285052 452.692982980122 50.4146185250281)" fill="#2021a4" stroke="#000000" stroke-opacity="0" stroke-width="0" stroke-linecap="square" stroke-linejoin="bevel" font-family="Times New Roman" font-size="20" font-size-adjust="0.404237" font-stretch="normal" font-weight="700" letter-spacing="0" text-anchor="middle" word-spacing="0"><tspan x="20.25">100</tspan></text><path id="shape5" transform="matrix(1.31544147628162 0 0 1.31544147628162 606.547644550586 42.4683988524649)" fill="none" stroke="#1c6c31" stroke-width="3.6" stroke-linecap="square" stroke-linejoin="bevel" d="M0 326.853C0 326.853 8.14422 297.782 13.7403 273.116C17.0968 258.322 21.002 240.426 25.4559 219.429C48.3921 121.937 69.9447 61.6911 90.1137 38.6929C106.309 20.2261 129.326 7.16469 184.809 3.0547C196.913 2.15812 221.35 1.13989 258.122 0"/><text id="shape6" krita:useRichText="true" transform="matrix(1.31544147628162 0 0 1.31544147628162 553.323290824952 36.6017326938852)" fill="#1c6c31" stroke="#000000" stroke-opacity="0" stroke-width="0" stroke-linecap="square" stroke-linejoin="bevel" font-size="18" font-size-adjust="0.451822" font-stretch="normal" font-weight="700" letter-spacing="0" text-anchor="middle" word-spacing="0"><tspan x="106.2890625">Convective Storm</tspan></text><path id="shape7" transform="matrix(1.31544147628162 0 0 1.31544147628162 532.879189756001 43.3890361655772)" fill="none" stroke="#931c19" stroke-width="3.6" stroke-linecap="square" stroke-linejoin="bevel" d="M0 324.117C19.3361 322.864 33.0849 320.665 41.2463 317.52C48.7809 314.617 71.9194 294.206 87.3263 277.92C118.397 245.077 154.248 193.598 199.646 126.72C220.117 96.5638 242.646 62.4113 269.486 25.92C276.86 15.8943 284.78 7.25435 293.246 0"/><text id="shape8" krita:useRichText="true" transform="matrix(1.31544147628162 0 0 1.31544147628162 724.75206027041 377.013308939117)" fill="#931c19" stroke="#000000" stroke-opacity="0" stroke-width="0" stroke-linecap="square" stroke-linejoin="bevel" font-size="18" font-size-adjust="0.451822" font-stretch="normal" font-weight="700" letter-spacing="0" text-anchor="middle" word-spacing="0"><tspan x="83.1796875">Frontal Storm</tspan></text><text id="shape9" krita:useRichText="true" transform="matrix(1.31544147628162 0 0 1.31544147628162 585.312196405458 552.043893631483)" fill="#191f78" stroke="#000000" stroke-opacity="0" stroke-width="0" stroke-linecap="square" stroke-linejoin="bevel" font-size="18" font-size-adjust="0.451822" font-stretch="normal" letter-spacing="0" text-anchor="middle" word-spacing="0"><tspan x="127.3203125">Percentage of total time</tspan></text><text id="shape018" krita:useRichText="true" transform="matrix(0 -1.31544142651655 1.31544142651655 0 448.046727140926 430.568002934557)" fill="#191f78" stroke="#000000" stroke-opacity="0" stroke-width="0" stroke-linecap="square" stroke-linejoin="bevel" font-size="18" font-size-adjust="0.451822" font-stretch="normal" letter-spacing="0" text-anchor="middle" word-spacing="0"><tspan x="139.828125">Percentage of total rainfall</tspan></text>
</svg>
